PathFileType	4	(X/Y/Z)	C:\Users\WrightLab\Desktop\Jo\P3_7.trc
DataRate	CameraRate	NumFrames	NumMarkers	Units	OrigDataRate	OrigDataStartFrame	OrigNumFrames
100.00	100.00	       11	19	mm	100.00	505	       576
Frame#	Time	Headset_Front			Headset_Back			Headset_Left			Headset_Right			Left_Shoulder			Right_Shoulder			Sternum			C7			Left Elbow			Right Elbow			Left Wrist			Right Wrist			Left ASIS			Right ASIS			S2			Left Knee			Right Knee			Left Ankle			Right Ankle			
		X1	Y1	Z1	X2	Y2	Z2	X3	Y3	Z3	X4	Y4	Z4	X5	Y5	Z5	X6	Y6	Z6	X7	Y7	Z7	X8	Y8	Z8	X9	Y9	Z9	X10	Y10	Z10	X11	Y11	Z11	X12	Y12	Z12	X13	Y13	Z13	X14	Y14	Z14	X15	Y15	Z15	X16	Y16	Z16	X17	Y17	Z17	X18	Y18	Z18	X19	Y19	Z19	

505	5.040				47.26604	1006.35242	2288.52222							-56.76719	1396.16199	2504.93579	-95.34443	1635.56250	2424.04541	-204.45332	1280.81848	2351.71655				-78.74493	1065.60742	2575.24829				-202.21555	900.30713	2586.99829	-223.47879	885.19958	2081.59595										-122.45126	506.42529	2502.38428	-171.51627	489.16776	2203.85596	-76.09917	175.41307	2508.41113	-43.16488	202.33467	2076.51831	
506	5.050	-26.11344	1451.51843	2323.04395	46.93610	1008.17218	2295.79248							-62.93153	1397.13574	2510.80176	-99.90688	1636.53918	2429.35938	-206.97813	1281.50317	2354.93530				-88.07492	1067.06677	2582.23926				-214.01877	903.42822	2590.98120	-218.11038	885.79602	2081.90820	-129.04468	907.43610	2448.08740							-122.70717	505.91455	2504.16235	-169.54826	490.06183	2205.63135	-75.94263	175.11232	2508.62476	-33.74522	204.50693	2080.35181	
507	5.060	-28.23283	1452.29529	2329.47705	46.50794	1009.77045	2303.96191							-69.10275	1398.11194	2516.87500	-103.95603	1637.79688	2433.90259	-209.11490	1282.20496	2357.44385				-97.44652	1068.70605	2589.49756				-225.79649	906.11322	2594.34766	-212.62459	886.96143	2082.75781	-134.55284	911.25763	2456.07886							-123.17962	505.33893	2506.47241	-166.07561	490.09976	2209.16748	-75.62341	174.36761	2508.47974	-24.63907	207.19122	2088.44678	
508	5.070	-29.97716	1453.35315	2336.27466	46.19319	1010.95490	2311.82617							-74.58130	1398.53821	2522.28394	-108.28010	1638.52380	2439.23755	-210.99733	1282.53430	2359.98193				-106.95376	1070.43311	2596.26172				-237.24854	909.96265	2598.19507	-207.64330	888.62085	2086.03027	-138.74388	912.75616	2460.42700							-123.13224	505.52011	2507.93311	-163.28589	490.45023	2210.47656	-76.03313	174.40656	2509.18701	-14.58693	209.42584	2094.42139	
509	5.080	-31.73806	1453.55066	2342.18042	45.67376	1012.42078	2319.22339							-80.31388	1399.04224	2527.47754	-111.91708	1639.25232	2443.37744	-212.64380	1282.64380	2362.51440				-115.93564	1071.82068	2602.68335				-248.39244	912.98657	2601.73657	-202.46675	889.29517	2088.16748	-142.52965	912.25287	2461.59839							-124.07317	505.10623	2510.84790	-159.62285	490.55313	2213.69653	-76.61156	174.69717	2510.09058	-3.59426	212.01236	2103.46924	
510	5.090	-33.53598	1454.30261	2348.92310	45.65115	1013.11383	2326.60718							-85.87269	1399.33801	2533.20410	-115.77284	1639.78540	2447.78955	-214.60355	1283.46545	2365.03027				-124.89259	1073.18909	2609.13232				-259.23578	915.87317	2605.17725	-197.20161	889.96204	2089.43262	-146.61995	911.14063	2462.59839							-124.65112	505.00397	2512.54053	-155.57793	490.55264	2216.71802	-76.69958	174.33678	2509.93896	7.05108	213.53200	2110.72729	
511	5.100	-35.38099	1454.67358	2354.78955	45.71289	1014.12622	2333.74609							-91.24393	1399.76550	2538.14307	-120.07247	1640.38672	2452.04199	-216.44942	1283.88208	2367.60596				-132.96564	1074.20691	2614.61157				-269.91763	918.73254	2608.17236	-192.48003	891.52106	2091.84912										-125.10516	504.79886	2514.20459	-152.31561	492.19391	2218.46533	-77.02763	173.80968	2510.52124	16.90064	216.23688	2121.36597	
512	5.110	-36.77512	1455.07129	2361.35986	45.24944	1014.44458	2341.11108							-96.48611	1399.76990	2542.86035	-124.03151	1641.47314	2456.21704	-218.12390	1283.85083	2369.95166				-140.74196	1074.91589	2620.11816				-280.20731	921.75836	2612.06055	-187.40140	892.89465	2094.24536										-126.15973	505.11407	2516.24512	-147.86580	491.84738	2219.58325	-77.66563	173.53906	2511.50586	27.17695	215.79300	2134.20923	
513	5.120	-38.81824	1456.02588	2366.83203	44.85773	1015.10559	2347.93799							-101.66322	1400.06738	2547.68408	-127.59149	1641.58643	2460.29932	-219.75108	1284.56873	2371.97388	-11.71217	1663.82336	2350.79736	-148.41637	1075.79688	2625.81567				-290.12762	924.74426	2614.83081	-182.82256	893.33130	2096.54126										-127.16528	504.68869	2517.25659	-143.85175	492.33163	2224.83569	-78.17032	173.39087	2511.85083	36.83527	219.26730	2141.70874	
514	5.130	-40.04023	1456.00500	2373.19824	44.41281	1015.31036	2356.40063							-106.86817	1399.76062	2551.49414	-131.10608	1642.17078	2463.85864	-221.15863	1285.09302	2373.79028	-13.17855	1663.19312	2355.73877	-155.87091	1076.94104	2630.82764				-298.93149	927.47510	2617.64526	-179.08925	894.10242	2100.19653										-128.15469	503.47803	2518.20532	-140.17154	494.33679	2225.78857	-78.72920	173.37633	2512.32861	46.65184	220.00542	2157.54004	
515	5.140	-41.45471	1456.19263	2378.33643	43.98856	1015.46796	2363.08032							-112.13404	1400.30798	2556.09692	-135.10664	1642.24036	2467.47314	-222.92171	1285.46851	2376.38916	-14.42302	1662.70984	2360.35327	-163.29466	1077.93750	2636.16577				-308.61920	930.31281	2620.06250	-174.71538	895.22430	2103.85303										-129.69896	503.99887	2519.68091	-135.51215	494.52042	2228.51367	-79.11790	173.13936	2512.00146	56.46855	219.47847	2171.20068	
